<?xml version="1.0" standalone="no"?>
<!DOCTYPE svg PUBLIC "-//W3C//DTD SVG 20010904//EN"
 "http://www.w3.org/TR/2001/REC-SVG-20010904/DTD/svg10.dtd">
<svg version="1.0" xmlns="http://www.w3.org/2000/svg"
 width="200.000000pt" height="200.000000pt" viewBox="0 0 200.000000 200.000000"
 preserveAspectRatio="xMidYMid meet">
<metadata>
Created by potrace 1.15, written by Peter Selinger 2001-2017
</metadata>
<g transform="translate(0.000000,200.000000) scale(0.100000,-0.100000)"
fill="#000000" stroke="none">
<path d="M120 980 l0 -760 105 0 105 0 0 370 0 370 345 0 345 0 0 -370 0 -370
440 0 440 0 0 90 0 90 -335 0 -335 0 0 670 0 670 -105 0 -105 0 0 -300 0 -300
-345 0 -345 0 0 300 0 300 -105 0 -105 0 0 -760z"/>
</g>
</svg>
