<?xml version="1.0" encoding="UTF-8"?>
<!DOCTYPE svg PUBLIC "-//W3C//DTD SVG 1.1//EN" "http://www.w3.org/Graphics/SVG/1.1/DTD/svg11.dtd">
<svg xmlns="http://www.w3.org/2000/svg" xml:space="preserve" width="245px" height="55px" version="1.1" style="shape-rendering:geometricPrecision; text-rendering:geometricPrecision; image-rendering:optimizeQuality; fill-rule:evenodd; clip-rule:evenodd" viewBox="0 0 600 135">
 <defs>
  <style type="text/css">
   <![CDATA[
    .str0 {stroke:#3d3d3d;stroke-width:2;stroke-miterlimit:22}
    .fil2 {fill:#f2816f}
    .fil3 {fill:#feffd4}
    .fil1 {fill:#fcf3a2}
   ]]>
  </style>
 </defs>
 <g id="HLEB-2_id">
  <metadata id="phphleb_Layer1"/>
  <path class="fil1 str0" d="M178.1 60.02c-28.14,-0.45 -38.14,-6.49 -56.74,-5.92 -27.26,1.57 -27.26,28.56 0,30.13 18.61,0.57 28.61,-5.47 56.79,-5.91 -0.95,-5.99 -0.94,-12.41 -0.05,-18.3z"/>
  <path class="fil1 str0" d="M394.66 60c27.63,-0.53 37.62,-6.47 56.07,-5.9 27.25,1.57 27.26,28.56 0,30.13 -18.63,0.58 -28.64,-5.49 -56.9,-5.92 1.18,-6.02 1.51,-12.43 0.83,-18.31z"/>
  <path class="fil2 str0" d="M171.56 48.6c51.26,0 178.02,0 229.28,0 9.49,6.83 7.86,30.77 0,40.22 -51.26,0 -178.02,0 -229.28,0 -9.01,-8.66 -8.25,-33.25 0,-40.22z"/>
  <path class="fil3 str0" d="M186.61 41.19c72.7,0 126.46,0 199.16,0 13.45,9.51 11.14,42.81 0,55.95 -72.7,0 -126.46,0 -199.16,0 -12.77,-12.04 -11.69,-46.24 0,-55.95z"/>
 </g>
</svg>
